
<svg xmlns="http://www.w3.org/2000/svg" viewBox="0 0 24 24" width="24" height="24">
  <path fill="#47A248" d="M12 2C6.486 2 2 6.486 2 12s4.486 10 10 10 10-4.486 10-10S17.514 2 12 2zm3.434 7.435c-.237.234-.513.42-.811.568-.15.074-.323.016-.368-.146-.024-.083-.048-.166-.048-.25 0-.468-.137-.89-.37-1.245a2.13 2.13 0 00-.521-.655 2.307 2.307 0 00-.677-.445 2.324 2.324 0 00-.783-.16c-.52 0-1.008.177-1.39.487a2.111 2.111 0 00-.78 1.407c-.017.177-.004.36.03.537.035.175.091.349.171.513.17.343.414.644.68.9.19.186.38.378.533.602.46.09.088.183.126.28.077.194.142.394.153.605.017.277-.045.55-.224.766a.72.72 0 01-.2.168.683.683 0 01-.231.097.721.721 0 01-.25.016.714.714 0 01-.243-.067.7.7 0 01-.205-.142c-.209-.195-.343-.452-.44-.723a2.526 2.526 0 01-.16-.778c-.005-.146 0-.293.022-.436.015-.105.035-.21.063-.314.07-.25.17-.489.305-.71.125-.204.274-.394.44-.566a3.546 3.546 0 012.337-.968c.337 0 .673.041 1.001.134.318.09.626.23.899.428.275.2.513.45.7.736.186.285.317.6.377.935.025.136.041.276.04.416 0 .117-.015.23-.043.343z"/>
</svg>
