
<svg xmlns="http://www.w3.org/2000/svg" viewBox="0 0 24 24" width="24" height="24">
  <path fill="#539e43" d="M12 21.8c-.3 0-.6-.1-.8-.2l-2.6-1.5c-.4-.2-.2-.3-.1-.3.5-.2.7-.2 1.2-.5 0 0 .1 0 .2.1l2 1.2c.1 0 .2 0 .2 0l7.8-4.5c.1 0 .1-.1.1-.2V8.6c0-.1 0-.2-.1-.2L12 3.9c-.1 0-.2 0-.2 0L4 8.6c-.1 0-.1.1-.1.2v9c0 .1 0 .2.1.2l2.1 1.2c1.1.6 1.8-.1 1.8-.8V9.4c0-.1.1-.2.2-.2h1c.1 0 .2.1.2.2v8.9c0 1.5-.8 2.4-2.1 2.4-.4 0-.7 0-1.7-.5l-2-1.2c-.5-.3-.8-.8-.8-1.4v-9c0-.6.3-1.1.8-1.4l7.8-4.5c.5-.3 1.1-.3 1.6 0l7.8 4.5c.5.3.8.8.8 1.4v9c0 .6-.3 1.1-.8 1.4l-7.8 4.5c-.3.1-.6.2-.8.2"/>
  <path fill="#539e43" d="M14.6 15.9c-3.4 0-4.1-1.6-4.1-2.9 0-.1.1-.2.2-.2h1c.1 0 .2.1.2.2.1.8.5 1.2 2.7 1.2 1.7 0 2.4-.4 2.4-1.2 0-.5-.2-.9-2.7-1.1-2.1-.2-3.4-.7-3.4-2.3 0-1.6 1.3-2.5 3.5-2.5 2.5 0 3.7.9 3.8 2.7 0 .1 0 .1-.1.2a.41.41 0 01-.2.1h-1c-.1 0-.2-.1-.2-.2-.2-1-.7-1.3-2.4-1.3-1.8 0-2 .6-2 1.1 0 .6.2.7 2.7 1.1s3.4.7 3.4 2.3c0 1.7-1.4 2.6-3.9 2.6"/>
</svg>
